/* XPM */
static char * playmusic_xpm[] = {
"32 32 7 1",
" 	c None",
".	c #249224",
"+	c #000000",
"@	c #010101",
"#	c #040404",
"$	c #171717",
"%	c #030303",
"...                             ",
".....                           ",
".......                         ",
".........                       ",
"...........                     ",
".............                   ",
"...............                 ",
".................               ",
"............++++..              ",
".......+++++...+....            ",
"......+........+......          ",
"......+........+........        ",
"......+........+..........      ",
"......+........+............    ",
"......+........+..............  ",
"......+........+................",
"......+....@++#+................",
"......+...@+++++..............  ",
"......+...++++++............    ",
"..$++++....++++...........      ",
".++++++.................        ",
".++++++...............          ",
"..@++%..............            ",
"..................              ",
"................                ",
"..............                  ",
"............                    ",
"..........                      ",
"........                        ",
"......                          ",
"....                            ",
"..                              "};
