/* XPM */
static char * stop_music_xpm[] = {
"32 32 6 1",
" 	c #920000",
".	c #000000",
"+	c #010101",
"@	c #040404",
"#	c #171717",
"$	c #030303",
"                                ",
"                                ",
"                                ",
"                                ",
"                                ",
"                                ",
"                                ",
"                                ",
"                  ....          ",
"             .....   .          ",
"            .        .          ",
"            .        .          ",
"            .        .          ",
"            .        .          ",
"            .        .          ",
"            .        .          ",
"            .    +..@.          ",
"            .   +.....          ",
"            .   ......          ",
"        #....    ....           ",
"       ......                   ",
"       ......                   ",
"        +..$                    ",
"                                ",
"                                ",
"                                ",
"                                ",
"                                ",
"                                ",
"                                ",
"                                ",
"                                "};
