/* XPM */
static char * uglyicon_xpm[] = {
"32 32 345 2",
"  	c #160202",
". 	c #1B0101",
"+ 	c #120202",
"@ 	c #000000",
"# 	c #160303",
"$ 	c #291C46",
"% 	c #36305D",
"& 	c #3A3363",
"* 	c #312751",
"= 	c #251840",
"- 	c #0D0D0D",
"; 	c #9B2424",
"> 	c #A22727",
", 	c #891F1F",
"' 	c #131536",
") 	c #7C2940",
"! 	c #1E1E44",
"~ 	c #892025",
"{ 	c #26264D",
"] 	c #444152",
"^ 	c #83362A",
"/ 	c #443E4C",
"( 	c #420B0B",
"_ 	c #992424",
": 	c #27112E",
"< 	c #343252",
"[ 	c #57503E",
"} 	c #564410",
"| 	c #402A00",
"1 	c #2F1C03",
"2 	c #983822",
"3 	c #9E7118",
"4 	c #9F8826",
"5 	c #594C40",
"6 	c #A02626",
"7 	c #91242A",
"8 	c #3F3B4E",
"9 	c #675827",
"0 	c #5C4503",
"a 	c #412900",
"b 	c #402700",
"c 	c #3F2F02",
"d 	c #9E521F",
"e 	c #A58312",
"f 	c #8A741C",
"g 	c #534236",
"h 	c #0F0000",
"i 	c #060000",
"j 	c #942F32",
"k 	c #766421",
"l 	c #654C00",
"m 	c #4E3400",
"n 	c #513500",
"o 	c #473000",
"p 	c #6C5606",
"q 	c #A86020",
"r 	c #8F6C0E",
"s 	c #6F5B22",
"t 	c #9F2827",
"u 	c #6F1818",
"v 	c #3A0909",
"w 	c #841E1E",
"x 	c #9E2626",
"y 	c #962323",
"z 	c #5F1212",
"A 	c #A02627",
"B 	c #9B3F28",
"C 	c #695105",
"D 	c #483201",
"E 	c #5E4200",
"F 	c #624600",
"G 	c #4D3702",
"H 	c #A1850F",
"I 	c #A86021",
"J 	c #6F4B15",
"K 	c #5A482F",
"L 	c #A12727",
"M 	c #9D2525",
"N 	c #3F0909",
"O 	c #3D0909",
"P 	c #591212",
"Q 	c #020210",
"R 	c #A02828",
"S 	c #993623",
"T 	c #443202",
"U 	c #674E03",
"V 	c #715300",
"W 	c #6B4E00",
"X 	c #674F09",
"Y 	c #B79813",
"Z 	c #99461F",
"` 	c #84642E",
" .	c #443326",
"..	c #691616",
"+.	c #7A1B1B",
"@.	c #8C2020",
"#.	c #791B1B",
"$.	c #230303",
"%.	c #510F0F",
"&.	c #912323",
"*.	c #2E252C",
"=.	c #A12A27",
"-.	c #952D23",
";.	c #8D730C",
">.	c #866702",
",.	c #7D5D00",
"'.	c #684C01",
").	c #896D0B",
"!.	c #886B03",
"~.	c #954022",
"{.	c #6A4C2C",
"].	c #0D070D",
"^.	c #731A1A",
"/.	c #300505",
"(.	c #9F2626",
"_.	c #9B2525",
":.	c #160D16",
"<.	c #5C4E34",
"[.	c #A12B26",
"}.	c #A34B24",
"|.	c #B19210",
"1.	c #886900",
"2.	c #896900",
"3.	c #7B5F01",
"4.	c #7C6101",
"5.	c #7B661A",
"6.	c #A76230",
"7.	c #3E1617",
"8.	c #400B0B",
"9.	c #871F1F",
"0.	c #540F0F",
"a.	c #3C2F28",
"b.	c #6D5924",
"c.	c #9F2D26",
"d.	c #AB5227",
"e.	c #A7880B",
"f.	c #927400",
"g.	c #937800",
"h.	c #776100",
"i.	c #806E21",
"j.	c #AE9F42",
"k.	c #983C2B",
"l.	c #210404",
"m.	c #200101",
"n.	c #942323",
"o.	c #952424",
"p.	c #250404",
"q.	c #551010",
"r.	c #380707",
"s.	c #0D0000",
"t.	c #641515",
"u.	c #56462E",
"v.	c #836E27",
"w.	c #AA572A",
"x.	c #A32C27",
"y.	c #9C7E0D",
"z.	c #937D02",
"A.	c #766506",
"B.	c #86792E",
"C.	c #AA9D46",
"D.	c #6D5730",
"E.	c #9F2627",
"F.	c #831F1F",
"G.	c #410A0A",
"H.	c #7F1C1C",
"I.	c #5A1111",
"J.	c #741A1A",
"K.	c #5D1313",
"L.	c #695833",
"M.	c #CCB548",
"N.	c #CB9F43",
"O.	c #A04424",
"P.	c #86611A",
"Q.	c #8A7834",
"R.	c #968643",
"S.	c #77432A",
"T.	c #982525",
"U.	c #6A1717",
"V.	c #611414",
"W.	c #912121",
"X.	c #731818",
"Y.	c #370707",
"Z.	c #8F2121",
"`.	c #534734",
" +	c #B8A94E",
".+	c #E6D76F",
"++	c #B87D46",
"@+	c #902121",
"#+	c #4B0E0E",
"$+	c #480B0B",
"%+	c #440A0A",
"&+	c #1C1A2C",
"*+	c #635B37",
"=+	c #9B914A",
"-+	c #A39951",
";+	c #906537",
">+	c #943A29",
",+	c #9C2A27",
"'+	c #A02727",
")+	c #9C2525",
"!+	c #6D1818",
"~+	c #7F1D1D",
"{+	c #470C0C",
"]+	c #8A2020",
"^+	c #8C2121",
"/+	c #000012",
"(+	c #0E0E22",
"_+	c #2D2827",
":+	c #322E25",
"<+	c #262420",
"[+	c #101014",
"}+	c #000007",
"|+	c #000B56",
"1+	c #002CE9",
"2+	c #000322",
"3+	c #0031FF",
"4+	c #0030FB",
"5+	c #002AE0",
"6+	c #000D60",
"7+	c #00094F",
"8+	c #002CEB",
"9+	c #0030FC",
"0+	c #000438",
"a+	c #0024CB",
"b+	c #0025CA",
"c+	c #000535",
"d+	c #002EF4",
"e+	c #001DAB",
"f+	c #0029DF",
"g+	c #0028D8",
"h+	c #001FAE",
"i+	c #002EF1",
"j+	c #0025CE",
"k+	c #0030F9",
"l+	c #002AE1",
"m+	c #000742",
"n+	c #002AE2",
"o+	c #000C62",
"p+	c #000A5D",
"q+	c #002CEA",
"r+	c #00064B",
"s+	c #001482",
"t+	c #002DEE",
"u+	c #001071",
"v+	c #000016",
"w+	c #001589",
"x+	c #0027D2",
"y+	c #001CA7",
"z+	c #000649",
"A+	c #0029DB",
"B+	c #0031F9",
"C+	c #00127D",
"D+	c #001EAC",
"E+	c #0023C4",
"F+	c #0021B9",
"G+	c #001AA0",
"H+	c #0029DC",
"I+	c #000851",
"J+	c #000C65",
"K+	c #002EED",
"L+	c #001481",
"M+	c #00043B",
"N+	c #002EF2",
"O+	c #00000D",
"P+	c #000755",
"Q+	c #002BE6",
"R+	c #0030FA",
"S+	c #0029DD",
"T+	c #002ADF",
"U+	c #001EB0",
"V+	c #00670C",
"W+	c #00650C",
"X+	c #002401",
"Y+	c #008A14",
"Z+	c #006E0E",
"`+	c #008F15",
" @	c #009015",
".@	c #00720F",
"+@	c #001B01",
"@@	c #002C03",
"#@	c #008913",
"$@	c #004C08",
"%@	c #008C14",
"&@	c #003D04",
"*@	c #00630B",
"=@	c #005708",
"-@	c #004405",
";@	c #008612",
">@	c #001901",
",@	c #008212",
"'@	c #009516",
")@	c #007E11",
"!@	c #003C03",
"~@	c #008313",
"{@	c #00690C",
"]@	c #006F0E",
"^@	c #009115",
"/@	c #008813",
"(@	c #00770E",
"_@	c #006A0D",
":@	c #00740F",
"<@	c #000600",
"[@	c #005408",
"}@	c #007710",
"|@	c #007A10",
"1@	c #006F0D",
"2@	c #002501",
"3@	c #004E06",
"4@	c #003404",
"5@	c #003302",
"6@	c #008713",
"7@	c #004C06",
"8@	c #008A13",
"9@	c #003704",
"0@	c #002C02",
"a@	c #005C0A",
"b@	c #00690D",
"c@	c #006C0D",
"d@	c #00710E",
"e@	c #00640A",
"f@	c #00700E",
"g@	c #005007",
"h@	c #003202",
"i@	c #002201",
"j@	c #00730D",
"k@	c #007F12",
"l@	c #008D14",
"m@	c #002701",
"n@	c #008E14",
"o@	c #003002",
"p@	c #008513",
"q@	c #003504",
"r@	c #002D02",
"s@	c #005E0A",
"t@	c #001602",
"u@	c #009215",
"v@	c #008312",
"w@	c #003F05",
"x@	c #007910",
"y@	c #009316",
"z@	c #006D0D",
"A@	c #008714",
"B@	c #009016",
"C@	c #00750F",
"D@	c #000F00",
"  . . . . . + @ @ # $ % & * = - @ @ @ @ @ @ @ @ @ @ @ @ @ @ @ @ ",
"; > > > > > , @ ' ) > > > > > ! @ @ @ @ @ @ @ @ @ @ @ @ @ @ @ @ ",
"; > > > > > ~ { ] ^ > > > > > / @ @ @ @ @ @ @ @ @ @ @ @ @ @ @ @ ",
"@ ( > > _ : < [ } | 1 2 > 3 4 5 @ @ @ @ @ @ @ @ @ @ @ @ @ @ @ @ ",
"@ @ 6 > 7 8 9 0 a b c d > e f g . . . . . . . h @ @ @ @ i @ @ @ ",
"@ @ 6 > j k l m n o p q > r s t > > > > > > > u @ v w x > y z @ ",
"@ @ A > B C D E F G H I > J K L > > > > > > M N O ; > > > > L P ",
"@ Q R > S T U V W X Y Z > `  .> ..i @ +.> L P @ @.> #.$.%.x > &.",
"@ *.=.> -.;.>.,.'.).!.~.> {.].@ @ @ z > > ^.@ /.> > > (._.(.> > ",
":.<.[.> }.|.1.2.3.4.5.6.> 7.@ @ @ 8.x > 9.@ @ 0.> > > > > > > > ",
"a.b.c.> d.e.f.g.h.i.j.k.> l.@ @ m.n.> o.p.@ @ q.> > r.@ @ @ s.t.",
"u.v.w.> x.y.z.A.B.C.D.E._ @ @ @ F.> x G.@ @ H.I.> > J.@ @ @ K.> ",
"L.M.N.> > O.P.Q.R.S.T.> +.@ @ U.> > V.. m.q.> q.W.> L X.Y.0._.Z.",
"`. +.+++> > > > > > > @+$.@ #+6 > > > > > > > %.$+x > > > > (.%+",
"&+*+=+-+;+>+,+'+)+@+!+  @ @ ~+> > > > > > > > $+@ {+]+x (.^+#+@ ",
"/+(+_+:+<+[+}+@ @ @ @ @ @ @ @ @ @ @ @ @ @ |+1+@ @ @ @ @ @ @ @ @ ",
"2+3+3+4+5+6+@ @ @ @ @ @ 7+8+@ @ @ @ @ @ @ |+1+@ @ @ @ @ @ @ @ @ ",
"2+9+@ 0+a+b+@ @ @ @ @ @ 7+8+@ @ @ @ @ @ @ |+1+@ @ @ @ @ @ @ @ @ ",
"2+9+@ c+b+b+@ 3+3+d+e+@ f+3+3+g+@ h+i+3+i+|+8+j+k+l+m+@ @ @ @ @ ",
"2+3+3+4+n+o+@ @ @ p+q+r+7+8+@ @ s+t+u+v+@ |+9+w+0+x+y+@ @ @ @ @ ",
"2+9+@ @ @ @ z+A+B+3+3+C+7+8+@ @ D+E+@ @ @ |+q+@ @ e+F+@ @ @ @ @ ",
"2+9+@ @ @ @ G+H+I+J+K+L+M+N+c+@ s+t+u+O+@ |+1+@ @ e+F+@ @ @ @ @ ",
"2+9+@ @ @ @ P+Q+R+S+T+L+@ x+9+g+@ U+N+3+i+|+1+@ @ e+F+@ @ @ @ @ ",
"@ @ @ @ @ @ @ @ @ @ @ @ @ @ @ @ @ @ @ @ V+W+X+Y+@ @ @ @ @ @ @ @ ",
"@ Z+`+ @.@+@@@#@@ @ @ @ @ @ @ @ @ @ @ @ V+W+@ @ @ @ @ @ @ @ @ @ ",
"$@%@&@X+*@=@@@#@@ @ @ @ @ @ @ @ @ @ @ @ V+W+@ @ @ @ @ @ @ @ @ @ ",
"-@;@>@@ @ @ ,@'@'@)@!@~@@ @ {@W+@ ]@^@/@(@W+X+Y+@ @ _@`+`+:@<@@ ",
"@ [@}@|@1@2@@@#@@ @ !@~@@ @ {@W+3@/@4@5@6@W+X+Y+@ 7@8@9@0@~@a@@ ",
"@ @ @ @ *@|@@@#@@ @ &@~@@ @ b@W+*@Z+@ @ c@W+X+Y+@ *@d@@ @ e@f@@ ",
"g@_@h@i@j@k@+@l@>@@ m@n@5@o@p@W+3@#@h@o@6@W+X+Y+@ 7@/@q@r@~@s@@ ",
"t@c@l@u@v@w@@ x@y@)@@ z@^@A@(@W+@ ]@^@/@(@W+X+Y+@ @ c@`+B@C@D@@ ",
"@ @ @ @ @ @ @ @ @ @ @ @ @ @ @ @ @ @ @ @ @ @ @ @ @ @ @ @ @ @ @ @ "};
