/* XPM */
static char * wave_editor_xpm[] = {
"32 32 136 2",
"  	c #1B1C1B",
". 	c #161716",
"+ 	c #171717",
"@ 	c #181818",
"# 	c #151515",
"$ 	c #161616",
"% 	c #171817",
"& 	c #151615",
"* 	c #1A1A1A",
"= 	c #191919",
"- 	c #191A19",
"; 	c #151516",
"> 	c #1B1B1B",
", 	c #181918",
"' 	c #161717",
") 	c #191A1A",
"! 	c #161615",
"~ 	c #181919",
"{ 	c #151616",
"] 	c #171716",
"^ 	c #1A1B1A",
"/ 	c #1C1C1C",
"( 	c #1C1D1C",
"_ 	c #1A1B1B",
": 	c #181817",
"< 	c #161617",
"[ 	c #1C1D1D",
"} 	c #195E29",
"| 	c #146729",
"1 	c #1B1C1C",
"2 	c #1E1F1E",
"3 	c #1F1F1F",
"4 	c #1E1E1E",
"5 	c #1D1D1D",
"6 	c #0AAC40",
"7 	c #05C448",
"8 	c #04C248",
"9 	c #08B744",
"0 	c #17341C",
"a 	c #191918",
"b 	c #0C9D3A",
"c 	c #07B845",
"d 	c #1A3A1F",
"e 	c #0BA83F",
"f 	c #0CA93F",
"g 	c #155E27",
"h 	c #02C84A",
"i 	c #174B21",
"j 	c #15331A",
"k 	c #04C64A",
"l 	c #14712C",
"m 	c #0CAC40",
"n 	c #129137",
"o 	c #118734",
"p 	c #0ABA46",
"q 	c #171818",
"r 	c #1C1C1B",
"s 	c #15451E",
"t 	c #02CD4C",
"u 	c #15381C",
"v 	c #172B1A",
"w 	c #02CA4B",
"x 	c #136126",
"y 	c #1B1B1A",
"z 	c #0D9839",
"A 	c #0F9A3A",
"B 	c #0BA73E",
"C 	c #141514",
"D 	c #04C448",
"E 	c #116F2B",
"F 	c #155423",
"G 	c #01CC4C",
"H 	c #153F1F",
"I 	c #186229",
"J 	c #09C349",
"K 	c #0BB443",
"L 	c #128A35",
"M 	c #174C23",
"N 	c #1A341F",
"O 	c #147F32",
"P 	c #09BD46",
"Q 	c #1E1F1F",
"R 	c #176B2B",
"S 	c #05C64A",
"T 	c #02C74A",
"U 	c #126B2A",
"V 	c #0BAB3F",
"W 	c #0E9739",
"X 	c #0E9438",
"Y 	c #0BAD40",
"Z 	c #15451F",
"` 	c #03CA4B",
" .	c #164820",
"..	c #164A21",
"+.	c #02CC4C",
"@.	c #194E25",
"#.	c #0CA13C",
"$.	c #0EAA40",
"%.	c #0DA13C",
"&.	c #13A23E",
"*.	c #14411E",
"=.	c #166027",
"-.	c #14451E",
";.	c #04C94B",
">.	c #165C27",
",.	c #0CA23C",
"'.	c #0E9C3A",
").	c #08B342",
"!.	c #166328",
"~.	c #01CC4B",
"{.	c #154620",
"].	c #1C3A22",
"^.	c #0AC148",
"/.	c #109036",
"(.	c #1A4C24",
"_.	c #04C549",
":.	c #158835",
"<.	c #195425",
"[.	c #01CD4B",
"}.	c #108F36",
"|.	c #145723",
"1.	c #05BC45",
"2.	c #0AA63E",
"3.	c #171718",
"4.	c #126A29",
"5.	c #06B543",
"6.	c #119638",
"7.	c #09AC40",
"8.	c #01CC4A",
"9.	c #119A3A",
"0.	c #141515",
"a.	c #16321A",
"b.	c #108834",
"c.	c #0AAC41",
"d.	c #0D9637",
"e.	c #145524",
"                                                                ",
"  . + @ + # $   # % & @ $ + + * = $ $ . + & + - = . . @ $ $ $   ",
"  # ; @ % & $   & $ . = + $ $ * = $ # $ + + & = - + $ @ $ $ .   ",
"  # & @ @ $ .   . $ $ @ . . + > > + . + , ' # ) * $ ! ~ { ] +   ",
"  = ~ - @ @ +   , @ @ * @ @ + ^ / @ + @ ^ @ , ( ^ @ @ _ + @ ~   ",
"  # $ @ + $ .   $ { $ ~ # $ $ * ) + # # + . $ @ = $ $ = $ $ $   ",
"  $ + + @ $ #   ! { : @ # # + * * + + $ @ . $ > * & < , $ + $   ",
"  > > [ (   ^ } | > ^ [ > 1 _ 2 3 * / > 1 / ^ 4 5 > ( /   1     ",
"  & + : + . 6 7 8 9 0 = $ $ $ > > $ $ a @ + $ - = ] $ @ $ + '   ",
"  $ . + $ b c d $ e f ~ $ $ $ > * $ + + @ { $ * a + $ @ + $ +   ",
"  . # + g h i   { j k l $ . + * > # ! + @ $ $ * @ $ { @ $ # !   ",
"  + @ , m n ,   ~ % o p q , @ ( _ . @ = ~ , , r ^ , % * = @ @   ",
"  # $ s t u $   ' # v w x + & y * $ + + @ # $ > = # $ @ $ + .   ",
"  $ $ z e + $   + & % A B ' $ > * C + % ] $ + ^ ~ $ $ - & & $   ",
"  . . D E & $   + % $ F G H # _ = $ # + + $ $ > = $ $ @ $ % $   ",
"  * I J > * *   ^ * >   K L ^ 5 / - ) > > * = 4 / ^ * 5 M ^ ^   ",
"    > N 1 ^ =   > > / / O P   Q 5 * > * / > ^ 4 / *   R S * _   ",
"  & . $ $ . #   . $ $ + ' T U * = $ + $ $ $ # ^ @ # . V W $ .   ",
"  $ # $ + # #   # # + % $ X Y * * . $ + @ $ . > - $ Z `  .# #   ",
"  , , , @ % +   # , % = q ..+.@.  + @ @ = + @ / > + #.$.' @ %   ",
"  & . + ] ' $   $ . $ , . . %.&.^ # + . @ $ & / = *.w =.+ $ &   ",
"  . $ @ + + #   $ $ + @ & + -.;.>.' + + @ & # * = ,.6 q $ # $   ",
"  $ + , . & '   . $ ' . $ + # '.).. . + @ # + > !.~.{.~ $ & +   ",
"  * > > * > >   > * ) 5 > > > ].^./.> _ 1 _ > (._.:.> [ ) > *   ",
"  $ $ q + + $   + ' ' + $ $ + = <.[.}.% @ . |.1.2.+ ' q . . $   ",
"  $ . 3.+ $ $   . $ + @ $ { + = * 4._.5.6.7.8.9.~ ' ' % # # $   ",
"  C ' @ . & #   $ . # @ # . 0.* * & a.b.c.d.e.> = $ $ , . $ $   ",
"  = + @ @ @ +   ' q q = @ @ @ / * - + ~ @ + @ ( * @ q - @ @ %   ",
"  + + + $ $ $   $ # + - $ # $ - = # $ $ + $ $ * = $ + @ # ! +   ",
"  $ $ ~ $ ' $   $ $ . @ + + $ * > + + . @ + $ ^ = $ % + $ $ .   ",
"  + $ , + { $   $ # { % + # $ * ^ . = ' $ $ $ ) = $ + @ @ $ #   ",
"                                                                "};
